#!OML:ASF F:\VICON\USERDATA\INSTALL\rory3\rory3.ASF
:FULLY-SPECIFIED
:DEGREES
298
root 2.4124 13.4607 -5.88095 13.4528 49.0325 -0.235704
lowerback 43.3358 1.09327 -3.81221
upperback 16.851 1.24018 0.749555
thorax -1.57268 0.842168 2.26789
lowerneck -3.13185 -1.88417 -3.53281
upperneck 20.2338 -2.97632 5.77329
head 6.79679 -1.15014 2.26628
rclavicle -4.28381e-014 1.86609e-014
rhumerus -18.638 39.9103 -81.6826
rradius 42.3509
rwrist 37.0439
rhand -46.723 14.2731
rfingers 7.12502
rthumb -19.441 -14.775
lclavicle -4.28381e-014 1.86609e-014
lhumerus -17.9261 -41.6506 87.6261
lradius 44.1007
lwrist -8.52477
lhand -35.4677 23.5456
lfingers 7.12502
lthumb -8.59618 53.3506
rfemur -73.6227 -15.5366 1.33451
rtibia 87.6355
rfoot -21.6041 -1.21223
rtoes -19.1756
lfemur -80.9103 7.76648 -12.2212
ltibia 92.7074
lfoot -21.4369 -5.0976
ltoes -5.37514
299
root 2.40047 13.4098 -5.8828 13.1889 49.1317 -0.315493
lowerback 43.1558 1.06928 -4.15955
upperback 17.0445 1.12818 1.05136
thorax -1.3103 0.745351 2.81119
lowerneck -3.53988 -1.7721 -4.31956
upperneck 20.3568 -2.7408 5.7318
head 6.90676 -1.0936 2.40126
rclavicle -4.7112e-014 2.27608e-014
rhumerus -18.444 40.5556 -81.2327
rradius 42.3739
rwrist 36.8603
rhand -47.0315 14.5263
rfingers 7.12502
rthumb -19.7375 -14.4916
lclavicle -4.7112e-014 2.27608e-014
lhumerus -18.1905 -41.1973 88.1284
lradius 44.1533
lwrist -6.63288
lhand -38.1769 20.511
lfingers 7.12502
lthumb -11.2099 50.1915
rfemur -73.741 -15.7056 1.36848
rtibia 88.1367
rfoot -21.6227 -0.937355
rtoes -18.4597
lfemur -81.09 7.79258 -12.105
ltibia 93.1919
lfoot -21.4793 -5.22608
ltoes -5.14792
300
root 2.38474 13.3641 -5.88395 12.9039 49.1698 -0.419375
lowerback 43.1092 0.813494 -4.69184
upperback 17.1466 0.661032 1.38372
thorax -1.15446 0.460422 3.60588
lowerneck -3.75593 -1.3649 -6.27139
upperneck 20.4331 -2.05162 6.05787
head 6.95451 -0.884925 2.88838
rclavicle 4.11484e-014 -5.397e-014
rhumerus -18.1067 42.3102 -80.5672
rradius 42.4785
rwrist 36.5318
rhand -47.2695 15.4405
rfingers 7.12502
rthumb -19.9664 -13.5537
lclavicle 4.11484e-014 -5.397e-014
lhumerus -18.5179 -39.0533 88.6305
lradius 44.4847
lwrist -7.7052
lhand -37.5947 21.06
lfingers 7.12502
lthumb -10.6483 50.7702
rfemur -73.875 -15.768 1.41024
rtibia 88.6046
rfoot -21.6459 -0.757453
rtoes -18.0271
lfemur -81.2368 7.97112 -12.0153
ltibia 93.6273
lfoot -21.4889 -5.43235
ltoes -5.06374
301
root 2.36846 13.3184 -5.8853 12.5649 49.1628 -0.646725
lowerback 42.9587 0.743334 -3.79999
upperback 17.042 0.852893 0.641927
thorax -1.23611 0.657212 2.29669
lowerneck -3.28717 -1.63882 -4.41718
upperneck 20.2663 -2.62425 6.10588
head 6.83043 -1.0223 2.54808
rclavicle -3.91606e-014 -5.56597e-015
rhumerus -19.0339 40.4471 -82.2947
rradius 42.3709
rwrist 36.9534
rhand -47.6607 15.8804
rfingers 7.12502
rthumb -20.3423 -13.0742
lclavicle -3.91606e-014 -5.56597e-015
lhumerus -19.1608 -40.739 87.7049
lradius 45.0925
lwrist -7.89054
lhand -35.9865 24.1195
lfingers 7.12502
lthumb -9.09681 53.9033
rfemur -74.0637 -15.7414 1.54924
rtibia 89.0483
rfoot -21.7062 -0.580448
rtoes -16.9595
lfemur -81.4159 8.18406 -11.8275
ltibia 94.0309
lfoot -21.4654 -5.59947
ltoes -4.87656
302
root 2.35111 13.2725 -5.88888 12.1982 49.2538 -0.891982
lowerback 43.0129 0.469628 -3.97082
upperback 17.0304 0.473443 0.795233
thorax -1.24307 0.451173 2.68141
lowerneck -3.42277 -1.33845 -5.67446
upperneck 20.3647 -2.13088 6.29048
head 6.87201 -0.865585 2.85714
rclavicle 2.62396e-014 1.07344e-014
rhumerus -18.9447 41.7087 -82.0815
rradius 42.4111
rwrist 36.7668
rhand -48.0676 15.5146
rfingers 7.12502
rthumb -20.7333 -13.3978
lclavicle 2.62396e-014 1.07344e-014
lhumerus -19.634 -39.3571 88.0096
lradius 45.4035
lwrist -8.15626
lhand -35.4486 24.8076
lfingers 7.12502
lthumb -8.57767 54.6134
rfemur -74.1951 -15.7754 1.6862
rtibia 89.4782
rfoot -21.7554 -0.498322
rtoes -16.8115
lfemur -81.6189 8.2798 -11.6305
ltibia 94.417
lfoot -21.4359 -5.69475
ltoes -4.84981
303
root 2.33508 13.2283 -5.89434 11.9176 49.316 -0.854252
lowerback 43.1481 0.391397 -4.0016
upperback 17.0145 0.366868 0.769073
thorax -1.28879 0.402417 2.70594
lowerneck -3.4704 -1.29833 -5.95466
upperneck 20.4542 -2.0613 6.36147
head 6.90821 -0.846606 2.93423
rclavicle -2.70347e-014 4.49253e-014
rhumerus -19.1554 41.8524 -82.2857
rradius 42.3773
rwrist 36.5229
rhand -48.7019 15.0729
rfingers 7.12502
rthumb -21.3427 -13.7717
lclavicle -2.70347e-014 4.49253e-014
lhumerus -20.1718 -39.2095 88.0945
lradius 45.823
lwrist -7.8117
lhand -35.4809 24.7305
lfingers 7.12502
lthumb -8.60886 54.5349
rfemur -74.1904 -15.8928 1.59908
rtibia 89.9048
rfoot -21.8366 -0.325735
rtoes -17.2876
lfemur -81.634 8.27052 -11.6159
ltibia 94.8041
lfoot -21.4707 -5.73763
ltoes -5.06363
304
root 2.3198 13.1799 -5.90112 11.6495 49.3317 -0.697203
lowerback 43.2032 0.868503 -4.27967
upperback 17.0586 0.853541 1.0729
thorax -1.28826 0.606385 2.99393
lowerneck -3.49288 -1.61099 -5.3244
upperneck 20.5458 -2.47574 5.99964
head 6.95965 -1.02049 2.6809
rclavicle -1.63003e-014 4.47266e-014
rhumerus -19.7019 41.0812 -82.2857
rradius 42.4103
rwrist 36.427
rhand -49.7214 14.5947
rfingers 7.12502
rthumb -22.3217 -14.1359
lclavicle -1.63003e-014 4.47266e-014
lhumerus -20.574 -40.2072 88.5042
lradius 46.2199
lwrist -7.37823
lhand -35.6375 24.8305
lfingers 7.12502
lthumb -8.75999 54.6287
rfemur -74.1364 -16.0666 1.42263
rtibia 90.345
rfoot -21.9949 -0.0388929
rtoes -17.3718
lfemur -81.5754 8.25418 -11.663
ltibia 95.2503
lfoot -21.4764 -5.90142
ltoes -4.67215
305
root 2.3045 13.1257 -5.90464 11.3352 49.1487 -0.775461
lowerback 42.9554 1.19928 -4.69392
upperback 17.2338 1.12834 1.36828
thorax -1.05193 0.689848 3.42565
lowerneck -3.68168 -1.66979 -5.39014
upperneck 20.5905 -2.49165 5.72287
head 7.00797 -1.05118 2.60013
rclavicle -2.62396e-014 1.36167e-014
rhumerus -19.7761 41.2036 -81.9975
rradius 42.4864
rwrist 36.47
rhand -50.7185 13.5242
rfingers 7.12502
rthumb -23.2786 -15.0886
lclavicle -2.62396e-014 1.36167e-014
lhumerus -20.8195 -40.3215 88.7955
lradius 46.6081
lwrist -7.14347
lhand -35.5799 24.8711
lfingers 7.12502
lthumb -8.70437 54.6717
rfemur -74.3576 -15.9973 1.44433
rtibia 90.8154
rfoot -21.8793 0.113761
rtoes -17.3159
lfemur -81.6556 8.56212 -11.5832
ltibia 95.7593
lfoot -21.5654 -6.08711
ltoes -4.52963
306
root 2.29317 13.0518 -5.91886 11.1092 49.0455 -0.924969
lowerback 42.836 1.27461 -3.82406
upperback 17.089 1.48806 0.79863
thorax -1.19007 0.956099 2.24947
lowerneck -3.24476 -2.05448 -3.39308
upperneck 20.3963 -3.15405 5.4134
head 6.87208 -1.24604 2.1143
rclavicle -1.25234e-014 1.0635e-014
rhumerus -20.6272 39.2656 -83.2856
rradius 42.4771
rwrist 36.6622
rhand -51.0237 13.1278
rfingers 7.12502
rthumb -23.5713 -15.4477
lclavicle -1.25234e-014 1.0635e-014
lhumerus -21.6394 -42.4891 88.2612
lradius 47.3259
lwrist -6.56938
lhand -35.4594 24.5981
lfingers 7.12502
lthumb -8.58817 54.4034
rfemur -74.8513 -16.132 1.55442
rtibia 91.3252
rfoot -21.7692 0.21814
rtoes -17.5924
lfemur -82.0893 8.72816 -11.4815
ltibia 96.3399
lfoot -21.6311 -6.04726
ltoes -4.71782
307
root 2.28295 12.9793 -5.93669 10.8451 48.9285 -1.0998
lowerback 42.8202 0.908069 -3.8063
upperback 17.0451 1.04628 0.726258
thorax -1.20897 0.743352 2.32191
lowerneck -3.17008 -1.72372 -4.38067
upperneck 20.3889 -2.64804 5.57891
head 6.84603 -1.06928 2.37101
rclavicle -2.82274e-014 -4.37326e-015
rhumerus -20.6944 40.7024 -83.2611
rradius 42.6863
rwrist 36.0037
rhand -50.8142 13.6739
rfingers 7.12502
rthumb -23.3704 -14.9272
lclavicle -2.82274e-014 -4.37326e-015
lhumerus -22.382 -41.4425 88.488
lradius 47.8641
lwrist -6.53147
lhand -35.4332 24.1627
lfingers 7.12502
lthumb -8.56287 53.9691
rfemur -75.3257 -16.2411 1.66637
rtibia 91.8003
rfoot -21.7137 0.32974
rtoes -17.7154
lfemur -82.5161 8.87492 -11.3695
ltibia 96.9159
lfoot -21.6728 -5.95967
ltoes -4.98581
308
root 2.27156 12.9181 -5.95491 10.5978 48.9705 -1.11234
lowerback 42.8497 0.841354 -4.2728
upperback 17.1267 0.833416 1.2072
thorax -1.12202 0.578743 3.14625
lowerneck -3.45132 -1.52457 -5.84562
upperneck 20.4988 -2.24111 5.63518
head 6.92742 -0.976749 2.66644
rclavicle -4.51241e-014 9.24349e-014
rhumerus -20.5686 42.1833 -82.3674
rradius 42.9499
rwrist 35.4375
rhand -50.8635 13.6524
rfingers 7.12502
rthumb -23.4177 -14.9427
lclavicle -4.51241e-014 9.24349e-014
lhumerus -22.7556 -40.2839 89.3015
lradius 48.2668
lwrist -6.32738
lhand -35.3628 24.1679
lfingers 7.12502
lthumb -8.4949 53.977
rfemur -75.5459 -16.4924 1.62911
rtibia 92.2562
rfoot -21.5749 0.504478
rtoes -17.664
lfemur -82.7603 8.82702 -11.3478
ltibia 97.4138
lfoot -21.7243 -5.87745
ltoes -5.51501
309
root 2.27732 12.8771 -5.96395 10.162 48.6455 -1.15077
lowerback 42.6113 1.49711 -3.65944
upperback 17.2019 1.82451 0.908227
thorax -1.02639 1.11821 2.16815
lowerneck -3.21009 -2.27927 -3.26539
upperneck 20.3906 -3.41656 5.1418
head 6.87127 -1.38019 1.9867
rclavicle 3.926e-015 3.36816e-014
rhumerus -21.5608 39.0759 -83.3508
rradius 42.9766
rwrist 35.8164
rhand -51.1859 13.12
rfingers 7.12502
rthumb -23.7269 -15.4353
lclavicle 3.926e-015 3.36816e-014
lhumerus -23.29 -43.5817 89.1067
lradius 48.9775
lwrist -5.12096
lhand -35.3574 24.442
lfingers 7.12502
lthumb -8.48969 54.2513
rfemur -75.5141 -16.3941 1.53269
rtibia 92.5886
rfoot -21.5502 0.728657
rtoes -18.0423
lfemur -82.5429 9.06222 -11.3425
ltibia 97.8801
lfoot -21.9594 -5.83901
ltoes -5.73723
